<svg width="128" height="140" viewBox="0 0 128 140" xmlns="http://www.w3.org/2000/svg" xmlns:xlink="http://www.w3.org/1999/xlink"><defs><path d="M.296 37.94c0 20.817 16.875 37.692 37.692 37.692 20.816 0 37.691-16.875 37.691-37.692S58.804.248 37.988.248C17.17.248.296 17.123.296 37.94z" id="a"/><path d="M.296 37.94c0 20.817 16.875 37.692 37.692 37.692 20.816 0 37.691-16.875 37.691-37.692S58.804.248 37.988.248C17.17.248.296 17.123.296 37.94z" id="c"/><path d="M.296 37.94c0 20.817 16.875 37.692 37.692 37.692 20.816 0 37.691-16.875 37.691-37.692S58.804.248 37.988.248C17.17.248.296 17.123.296 37.94z" id="e"/><path d="M.296 37.94c0 20.817 16.875 37.692 37.692 37.692 20.816 0 37.691-16.875 37.691-37.692S58.804.248 37.988.248C17.17.248.296 17.123.296 37.94z" id="g"/><path d="M.296 37.94c0 20.817 16.875 37.692 37.692 37.692 20.816 0 37.691-16.875 37.691-37.692S58.804.248 37.988.248C17.17.248.296 17.123.296 37.94z" id="i"/><path d="M.296 37.94c0 20.817 16.875 37.692 37.692 37.692 20.816 0 37.691-16.875 37.691-37.692S58.804.248 37.988.248C17.17.248.296 17.123.296 37.94z" id="k"/><path d="M.296 37.94c0 20.817 16.875 37.692 37.692 37.692 20.816 0 37.691-16.875 37.691-37.692S58.804.248 37.988.248C17.17.248.296 17.123.296 37.94z" id="m"/><path d="M.296 37.94c0 20.817 16.875 37.692 37.692 37.692 20.816 0 37.691-16.875 37.691-37.692S58.804.248 37.988.248C17.17.248.296 17.123.296 37.94z" id="o"/><path d="M.296 37.94c0 20.817 16.875 37.692 37.692 37.692 20.816 0 37.691-16.875 37.691-37.692S58.804.248 37.988.248C17.17.248.296 17.123.296 37.94z" id="q"/><path d="M.296 37.94c0 20.817 16.875 37.692 37.692 37.692 20.816 0 37.691-16.875 37.691-37.692S58.804.248 37.988.248C17.17.248.296 17.123.296 37.94z" id="s"/><path d="M.296 37.94c0 20.817 16.875 37.692 37.692 37.692 20.816 0 37.691-16.875 37.691-37.692S58.804.248 37.988.248C17.17.248.296 17.123.296 37.94z" id="u"/><path d="M.296 37.94c0 20.817 16.875 37.692 37.692 37.692 20.816 0 37.691-16.875 37.691-37.692S58.804.248 37.988.248C17.17.248.296 17.123.296 37.94z" id="w"/><path d="M.296 37.94c0 20.817 16.875 37.692 37.692 37.692 20.816 0 37.691-16.875 37.691-37.692S58.804.248 37.988.248C17.17.248.296 17.123.296 37.94z" id="y"/><path d="M.296 37.94c0 20.817 16.875 37.692 37.692 37.692 20.816 0 37.691-16.875 37.691-37.692S58.804.248 37.988.248C17.17.248.296 17.123.296 37.94z" id="A"/><path d="M.296 37.94c0 20.817 16.875 37.692 37.692 37.692 20.816 0 37.691-16.875 37.691-37.692S58.804.248 37.988.248C17.17.248.296 17.123.296 37.94z" id="C"/><path d="M.296 37.94c0 20.817 16.875 37.692 37.692 37.692 20.816 0 37.691-16.875 37.691-37.692S58.804.248 37.988.248C17.17.248.296 17.123.296 37.94z" id="E"/><path d="M.296 37.94c0 20.817 16.875 37.692 37.692 37.692 20.816 0 37.691-16.875 37.691-37.692S58.804.248 37.988.248C17.17.248.296 17.123.296 37.94z" id="G"/><path d="M.296 37.94c0 20.817 16.875 37.692 37.692 37.692 20.816 0 37.691-16.875 37.691-37.692S58.804.248 37.988.248C17.17.248.296 17.123.296 37.94z" id="I"/><path d="M.296 37.94c0 20.817 16.875 37.692 37.692 37.692 20.816 0 37.691-16.875 37.691-37.692S58.804.248 37.988.248C17.17.248.296 17.123.296 37.94z" id="K"/><path d="M.296 37.94c0 20.817 16.875 37.692 37.692 37.692 20.816 0 37.691-16.875 37.691-37.692S58.804.248 37.988.248C17.17.248.296 17.123.296 37.94z" id="M"/><path d="M.296 37.94c0 20.817 16.875 37.692 37.692 37.692 20.816 0 37.691-16.875 37.691-37.692S58.804.248 37.988.248C17.17.248.296 17.123.296 37.94z" id="O"/><path d="M.296 37.94c0 20.817 16.875 37.692 37.692 37.692 20.816 0 37.691-16.875 37.691-37.692S58.804.248 37.988.248C17.17.248.296 17.123.296 37.94z" id="Q"/><path d="M.296 37.94c0 20.817 16.875 37.692 37.692 37.692 20.816 0 37.691-16.875 37.691-37.692S58.804.248 37.988.248C17.17.248.296 17.123.296 37.94z" id="S"/><path d="M.296 37.94c0 20.817 16.875 37.692 37.692 37.692 20.816 0 37.691-16.875 37.691-37.692S58.804.248 37.988.248C17.17.248.296 17.123.296 37.94z" id="U"/><path d="M.296 37.94c0 20.817 16.875 37.692 37.692 37.692 20.816 0 37.691-16.875 37.691-37.692S58.804.248 37.988.248C17.17.248.296 17.123.296 37.94z" id="W"/><path d="M.296 37.94c0 20.817 16.875 37.692 37.692 37.692 20.816 0 37.691-16.875 37.691-37.692S58.804.248 37.988.248C17.17.248.296 17.123.296 37.94z" id="Y"/><path d="M.296 37.94c0 20.817 16.875 37.692 37.692 37.692 20.816 0 37.691-16.875 37.691-37.692S58.804.248 37.988.248C17.17.248.296 17.123.296 37.94z" id="aa"/><path d="M.296 37.94c0 20.817 16.875 37.692 37.692 37.692 20.816 0 37.691-16.875 37.691-37.692S58.804.248 37.988.248C17.17.248.296 17.123.296 37.94z" id="ac"/><path d="M.296 37.94c0 20.817 16.875 37.692 37.692 37.692 20.816 0 37.691-16.875 37.691-37.692S58.804.248 37.988.248C17.17.248.296 17.123.296 37.94z" id="ae"/><path d="M.296 37.94c0 20.817 16.875 37.692 37.692 37.692 20.816 0 37.691-16.875 37.691-37.692S58.804.248 37.988.248C17.17.248.296 17.123.296 37.94z" id="ag"/><path d="M.296 37.94c0 20.817 16.875 37.692 37.692 37.692 20.816 0 37.691-16.875 37.691-37.692S58.804.248 37.988.248C17.17.248.296 17.123.296 37.94z" id="ai"/><path d="M.296 37.94c0 20.817 16.875 37.692 37.692 37.692 20.816 0 37.691-16.875 37.691-37.692S58.804.248 37.988.248C17.17.248.296 17.123.296 37.94z" id="ak"/><path d="M.296 37.94c0 20.817 16.875 37.692 37.692 37.692 20.816 0 37.691-16.875 37.691-37.692S58.804.248 37.988.248C17.17.248.296 17.123.296 37.94z" id="am"/><path d="M.296 37.94c0 20.817 16.875 37.692 37.692 37.692 20.816 0 37.691-16.875 37.691-37.692S58.804.248 37.988.248C17.17.248.296 17.123.296 37.94z" id="ao"/><path d="M.296 37.94c0 20.817 16.875 37.692 37.692 37.692 20.816 0 37.691-16.875 37.691-37.692S58.804.248 37.988.248C17.17.248.296 17.123.296 37.94z" id="aq"/><path d="M.296 37.94c0 20.817 16.875 37.692 37.692 37.692 20.816 0 37.691-16.875 37.691-37.692S58.804.248 37.988.248C17.17.248.296 17.123.296 37.94z" id="as"/><path d="M.296 37.94c0 20.817 16.875 37.692 37.692 37.692 20.816 0 37.691-16.875 37.691-37.692S58.804.248 37.988.248C17.17.248.296 17.123.296 37.94z" id="au"/><path d="M.296 37.94c0 20.817 16.875 37.692 37.692 37.692 20.816 0 37.691-16.875 37.691-37.692S58.804.248 37.988.248C17.17.248.296 17.123.296 37.94z" id="aw"/><path d="M.296 37.94c0 20.817 16.875 37.692 37.692 37.692 20.816 0 37.691-16.875 37.691-37.692S58.804.248 37.988.248C17.17.248.296 17.123.296 37.94z" id="ay"/><path d="M.296 37.94c0 20.817 16.875 37.692 37.692 37.692 20.816 0 37.691-16.875 37.691-37.692S58.804.248 37.988.248C17.17.248.296 17.123.296 37.94z" id="aA"/><path d="M.296 37.94c0 20.817 16.875 37.692 37.692 37.692 20.816 0 37.691-16.875 37.691-37.692S58.804.248 37.988.248C17.17.248.296 17.123.296 37.94z" id="aC"/><path d="M.296 37.94c0 20.817 16.875 37.692 37.692 37.692 20.816 0 37.691-16.875 37.691-37.692S58.804.248 37.988.248C17.17.248.296 17.123.296 37.94z" id="aE"/><path d="M.296 37.94c0 20.817 16.875 37.692 37.692 37.692 20.816 0 37.691-16.875 37.691-37.692S58.804.248 37.988.248C17.17.248.296 17.123.296 37.94z" id="aG"/><path d="M.296 37.94c0 20.817 16.875 37.692 37.692 37.692 20.816 0 37.691-16.875 37.691-37.692S58.804.248 37.988.248C17.17.248.296 17.123.296 37.94z" id="aI"/><path d="M.296 37.94c0 20.817 16.875 37.692 37.692 37.692 20.816 0 37.691-16.875 37.691-37.692S58.804.248 37.988.248C17.17.248.296 17.123.296 37.94z" id="aK"/><path d="M.296 37.94c0 20.817 16.875 37.692 37.692 37.692 20.816 0 37.691-16.875 37.691-37.692S58.804.248 37.988.248C17.17.248.296 17.123.296 37.94z" id="aM"/><path d="M.296 37.94c0 20.817 16.875 37.692 37.692 37.692 20.816 0 37.691-16.875 37.691-37.692S58.804.248 37.988.248C17.17.248.296 17.123.296 37.94z" id="aO"/><path d="M.296 37.94c0 20.817 16.875 37.692 37.692 37.692 20.816 0 37.691-16.875 37.691-37.692S58.804.248 37.988.248C17.17.248.296 17.123.296 37.94z" id="aQ"/><path d="M.296 37.94c0 20.817 16.875 37.692 37.692 37.692 20.816 0 37.691-16.875 37.691-37.692S58.804.248 37.988.248C17.17.248.296 17.123.296 37.94z" id="aS"/><path d="M.296 37.94c0 20.817 16.875 37.692 37.692 37.692 20.816 0 37.691-16.875 37.691-37.692S58.804.248 37.988.248C17.17.248.296 17.123.296 37.94z" id="aU"/><path d="M.296 37.94c0 20.817 16.875 37.692 37.692 37.692 20.816 0 37.691-16.875 37.691-37.692S58.804.248 37.988.248C17.17.248.296 17.123.296 37.94z" id="aW"/><path d="M.296 37.94c0 20.817 16.875 37.692 37.692 37.692 20.816 0 37.691-16.875 37.691-37.692S58.804.248 37.988.248C17.17.248.296 17.123.296 37.94z" id="aY"/><path d="M.296 37.94c0 20.817 16.875 37.692 37.692 37.692 20.816 0 37.691-16.875 37.691-37.692S58.804.248 37.988.248C17.17.248.296 17.123.296 37.94z" id="ba"/><path d="M.296 37.94c0 20.817 16.875 37.692 37.692 37.692 20.816 0 37.691-16.875 37.691-37.692S58.804.248 37.988.248C17.17.248.296 17.123.296 37.94z" id="bc"/><path d="M.296 37.94c0 20.817 16.875 37.692 37.692 37.692 20.816 0 37.691-16.875 37.691-37.692S58.804.248 37.988.248C17.17.248.296 17.123.296 37.94z" id="be"/><path d="M.296 37.94c0 20.817 16.875 37.692 37.692 37.692 20.816 0 37.691-16.875 37.691-37.692S58.804.248 37.988.248C17.17.248.296 17.123.296 37.94z" id="bg"/><path d="M.296 37.94c0 20.817 16.875 37.692 37.692 37.692 20.816 0 37.691-16.875 37.691-37.692S58.804.248 37.988.248C17.17.248.296 17.123.296 37.94z" id="bi"/><path d="M.296 37.94c0 20.817 16.875 37.692 37.692 37.692 20.816 0 37.691-16.875 37.691-37.692S58.804.248 37.988.248C17.17.248.296 17.123.296 37.94z" id="bk"/><path d="M.296 37.94c0 20.817 16.875 37.692 37.692 37.692 20.816 0 37.691-16.875 37.691-37.692S58.804.248 37.988.248C17.17.248.296 17.123.296 37.94z" id="bm"/><path d="M.296 37.94c0 20.817 16.875 37.692 37.692 37.692 20.816 0 37.691-16.875 37.691-37.692S58.804.248 37.988.248C17.17.248.296 17.123.296 37.94z" id="bo"/><path d="M.296 37.94c0 20.817 16.875 37.692 37.692 37.692 20.816 0 37.691-16.875 37.691-37.692S58.804.248 37.988.248C17.17.248.296 17.123.296 37.94z" id="bq"/><path d="M.296 37.94c0 20.817 16.875 37.692 37.692 37.692 20.816 0 37.691-16.875 37.691-37.692S58.804.248 37.988.248C17.17.248.296 17.123.296 37.94z" id="bs"/><path d="M.296 37.94c0 20.817 16.875 37.692 37.692 37.692 20.816 0 37.691-16.875 37.691-37.692S58.804.248 37.988.248C17.17.248.296 17.123.296 37.94z" id="bu"/><path d="M.296 37.94c0 20.817 16.875 37.692 37.692 37.692 20.816 0 37.691-16.875 37.691-37.692S58.804.248 37.988.248C17.17.248.296 17.123.296 37.94z" id="bw"/><path d="M.296 37.94c0 20.817 16.875 37.692 37.692 37.692 20.816 0 37.691-16.875 37.691-37.692S58.804.248 37.988.248C17.17.248.296 17.123.296 37.94z" id="by"/><path d="M.296 37.94c0 20.817 16.875 37.692 37.692 37.692 20.816 0 37.691-16.875 37.691-37.692S58.804.248 37.988.248C17.17.248.296 17.123.296 37.94z" id="bA"/><path d="M.296 37.94c0 20.817 16.875 37.692 37.692 37.692 20.816 0 37.691-16.875 37.691-37.692S58.804.248 37.988.248C17.17.248.296 17.123.296 37.94z" id="bC"/><path d="M.296 37.94c0 20.817 16.875 37.692 37.692 37.692 20.816 0 37.691-16.875 37.691-37.692S58.804.248 37.988.248C17.17.248.296 17.123.296 37.94z" id="bE"/><path d="M.296 37.94c0 20.817 16.875 37.692 37.692 37.692 20.816 0 37.691-16.875 37.691-37.692S58.804.248 37.988.248C17.17.248.296 17.123.296 37.94z" id="bG"/><path d="M.296 37.94c0 20.817 16.875 37.692 37.692 37.692 20.816 0 37.691-16.875 37.691-37.692S58.804.248 37.988.248C17.17.248.296 17.123.296 37.94z" id="bI"/><path d="M.296 37.94c0 20.817 16.875 37.692 37.692 37.692 20.816 0 37.691-16.875 37.691-37.692S58.804.248 37.988.248C17.17.248.296 17.123.296 37.94z" id="bK"/><path d="M.296 37.94c0 20.817 16.875 37.692 37.692 37.692 20.816 0 37.691-16.875 37.691-37.692S58.804.248 37.988.248C17.17.248.296 17.123.296 37.94z" id="bM"/><path d="M.296 37.94c0 20.817 16.875 37.692 37.692 37.692 20.816 0 37.691-16.875 37.691-37.692S58.804.248 37.988.248C17.17.248.296 17.123.296 37.94z" id="bO"/><path d="M.296 37.94c0 20.817 16.875 37.692 37.692 37.692 20.816 0 37.691-16.875 37.691-37.692S58.804.248 37.988.248C17.17.248.296 17.123.296 37.94z" id="bQ"/><path d="M.296 37.94c0 20.817 16.875 37.692 37.692 37.692 20.816 0 37.691-16.875 37.691-37.692S58.804.248 37.988.248C17.17.248.296 17.123.296 37.94z" id="bS"/><path d="M.296 37.94c0 20.817 16.875 37.692 37.692 37.692 20.816 0 37.691-16.875 37.691-37.692S58.804.248 37.988.248C17.17.248.296 17.123.296 37.94z" id="bU"/><path d="M.296 37.94c0 20.817 16.875 37.692 37.692 37.692 20.816 0 37.691-16.875 37.691-37.692S58.804.248 37.988.248C17.17.248.296 17.123.296 37.94z" id="bW"/><path d="M.296 37.94c0 20.817 16.875 37.692 37.692 37.692 20.816 0 37.691-16.875 37.691-37.692S58.804.248 37.988.248C17.17.248.296 17.123.296 37.94z" id="bY"/><path d="M.296 37.94c0 20.817 16.875 37.692 37.692 37.692 20.816 0 37.691-16.875 37.691-37.692S58.804.248 37.988.248C17.17.248.296 17.123.296 37.94z" id="ca"/><path d="M.296 37.94c0 20.817 16.875 37.692 37.692 37.692 20.816 0 37.691-16.875 37.691-37.692S58.804.248 37.988.248C17.17.248.296 17.123.296 37.94z" id="cc"/><path d="M.296 37.94c0 20.817 16.875 37.692 37.692 37.692 20.816 0 37.691-16.875 37.691-37.692S58.804.248 37.988.248C17.17.248.296 17.123.296 37.94z" id="ce"/><path d="M.296 37.94c0 20.817 16.875 37.692 37.692 37.692 20.816 0 37.691-16.875 37.691-37.692S58.804.248 37.988.248C17.17.248.296 17.123.296 37.94z" id="cg"/><path d="M.296 37.94c0 20.817 16.875 37.692 37.692 37.692 20.816 0 37.691-16.875 37.691-37.692S58.804.248 37.988.248C17.17.248.296 17.123.296 37.94z" id="ci"/><path d="M.296 37.94c0 20.817 16.875 37.692 37.692 37.692 20.816 0 37.691-16.875 37.691-37.692S58.804.248 37.988.248C17.17.248.296 17.123.296 37.94z" id="ck"/><path d="M.296 37.94c0 20.817 16.875 37.692 37.692 37.692 20.816 0 37.691-16.875 37.691-37.692S58.804.248 37.988.248C17.17.248.296 17.123.296 37.94z" id="cm"/><path d="M.296 37.94c0 20.817 16.875 37.692 37.692 37.692 20.816 0 37.691-16.875 37.691-37.692S58.804.248 37.988.248C17.17.248.296 17.123.296 37.94z" id="co"/><path d="M.296 37.94c0 20.817 16.875 37.692 37.692 37.692 20.816 0 37.691-16.875 37.691-37.692S58.804.248 37.988.248C17.17.248.296 17.123.296 37.94z" id="cq"/><path d="M.296 37.94c0 20.817 16.875 37.692 37.692 37.692 20.816 0 37.691-16.875 37.691-37.692S58.804.248 37.988.248C17.17.248.296 17.123.296 37.94z" id="cs"/><path d="M.296 37.94c0 20.817 16.875 37.692 37.692 37.692 20.816 0 37.691-16.875 37.691-37.692S58.804.248 37.988.248C17.17.248.296 17.123.296 37.94z" id="cu"/><path d="M.296 37.94c0 20.817 16.875 37.692 37.692 37.692 20.816 0 37.691-16.875 37.691-37.692S58.804.248 37.988.248C17.17.248.296 17.123.296 37.94z" id="cw"/><path d="M.296 37.94c0 20.817 16.875 37.692 37.692 37.692 20.816 0 37.691-16.875 37.691-37.692S58.804.248 37.988.248C17.17.248.296 17.123.296 37.94z" id="cy"/><path d="M.296 37.94c0 20.817 16.875 37.692 37.692 37.692 20.816 0 37.691-16.875 37.691-37.692S58.804.248 37.988.248C17.17.248.296 17.123.296 37.94z" id="cA"/><path d="M.296 37.94c0 20.817 16.875 37.692 37.692 37.692 20.816 0 37.691-16.875 37.691-37.692S58.804.248 37.988.248C17.17.248.296 17.123.296 37.94z" id="cC"/><path d="M.296 37.94c0 20.817 16.875 37.692 37.692 37.692 20.816 0 37.691-16.875 37.691-37.692S58.804.248 37.988.248C17.17.248.296 17.123.296 37.94z" id="cE"/><path d="M.296 37.94c0 20.817 16.875 37.692 37.692 37.692 20.816 0 37.691-16.875 37.691-37.692S58.804.248 37.988.248C17.17.248.296 17.123.296 37.94z" id="cG"/><path d="M.296 37.94c0 20.817 16.875 37.692 37.692 37.692 20.816 0 37.691-16.875 37.691-37.692S58.804.248 37.988.248C17.17.248.296 17.123.296 37.94z" id="cI"/><path d="M.296 37.94c0 20.817 16.875 37.692 37.692 37.692 20.816 0 37.691-16.875 37.691-37.692S58.804.248 37.988.248C17.17.248.296 17.123.296 37.94z" id="cK"/><path d="M.296 37.94c0 20.817 16.875 37.692 37.692 37.692 20.816 0 37.691-16.875 37.691-37.692S58.804.248 37.988.248C17.17.248.296 17.123.296 37.94z" id="cM"/><path id="cO" d="M.52.112h21.602v20.546H.52z"/></defs><g fill="none" fill-rule="evenodd"><path d="M0 89.674l.445 1.59 3.705-1.037.687 2.453.993.56 4.255-1.193.56-.993-1.132-4.044L0 89.674zm6.092 1.561l-.403-1.44 2.716-.76.403 1.439-.122.237-2.353.66-.24-.136zM5.946 105.288l-1.993-4.079 8.88-4.34.731 1.496-7.443 3.637 1.263 2.583zM14.634 111.83l2.258-2.543-3.082 1.438.824 1.106zm-1.087 1.217l-1.213-1.627-1.975.921-1.01-1.356 9.324-4.032.964 1.293-6.526 7.787-1.01-1.357 1.446-1.63zM19.308 122.502l-1.188-1.13 2.374-2.496 2.797-6.226 1.3 1.237-1.925 3.894 3.793-2.12 1.3 1.237-6.077 3.106zM26.51 128.347l5.354-8.305 3.977 2.564-.866 1.344-2.59-1.668-1.331 2.064 1.922 1.24-.865 1.344-1.924-1.24-1.423 2.206 2.59 1.67-.867 1.344zM41.955 130.418l.242-.11.92-2.265-.1-.237-1.47-.597-1.06 2.613 1.468.596zm-5.047 3.828l3.718-9.15 3.949 1.604.442 1.049-1.662 4.094-1.05.443-.701 3.868-1.506-.611.701-3.868-.915-.372-1.447 3.565-1.53-.622zM53.166 131.988l.205-1.02-.153-.23-1.236-.25-.23.154-.407 2.014.153.23 2.27.457.63.95-.834 4.132-.95.63-3.289-.664-.631-.95.404-2.002 1.62.327-.21 1.033.153.23 1.237.25.23-.153.443-2.193-.153-.23-2.257-.455-.63-.95.8-3.966.95-.63 3.29.664.63.95-.404 2.002zM70.479 129.793l-1.054 10.095 1.676-.218.165-2.169 2.01-.26.712 2.056 1.676-.215-3.586-9.496-1.6.207zm1.16 2.693l1.11 3.21-1.365.178.256-3.388zM82.205 136.7l-2.59-7.852.513-1.018 3.16-1.043 1.018.514.64 1.938-1.568.517-.327-.988-.245-.124-1.186.392-.124.246 1.962 5.95.247.123 1.186-.39.124-.247-.326-.986 1.568-.52.64 1.94-.514 1.018-3.16 1.042zM94.806 128.17l-2.22-2.571 1.016 3.24 1.204-.669zm1.06 1.239l-1.77.986.65 2.077-1.477.822-2.758-9.768 1.407-.784 6.847 7.494-1.475.82-1.424-1.647zM105.888 122.927l.013-.265-4.06-4.823-.264-.03-1.124.945 4.312 5.12 1.123-.947zm-4.52-7l1.135.097 5.325 6.322-.096 1.135-3.201 2.696-6.364-7.554 3.201-2.696zM113.545 117.671l-7.637-6.269 3.003-3.657 1.236 1.015-1.955 2.38 1.9 1.56 1.45-1.768 1.236 1.015-1.451 1.768 2.029 1.667 1.956-2.383 1.235 1.014zM120.733 103.337l-.397.76-4.771-.69 5.908 3.088-.765 1.463-8.753-4.577.952-1.819 4.886.722-3.381-3.602.952-1.82 8.752 4.577-.765 1.463-5.908-3.09zM118.318 87.913l3.657 2.342-4.34.14-.477 1.728 6.804-.471 3.321.916.436-1.58-3.322-.915-5.602-3.89zM110.618 74.192c0 25.72-20.85 46.57-46.57 46.57s-46.57-20.85-46.57-46.57 20.85-46.57 46.57-46.57 46.57 20.85 46.57 46.57" fill="#FEFEFE"/><g transform="translate(26.06 36.252)"><mask id="b" fill="#fff"><use xlink:href="#a"/></mask><path fill="#B09B62" mask="url(#b)" d="M.296 53.553l22.079 22.08H.295z"/></g><g transform="translate(26.06 36.252)"><mask id="d" fill="#fff"><use xlink:href="#c"/></mask><path fill="#B09B62" mask="url(#d)" d="M.296 52.802l22.83 22.83h-.751L.295 53.552z"/></g><g transform="translate(26.06 36.252)"><mask id="f" fill="#fff"><use xlink:href="#e"/></mask><path fill="#B09C63" mask="url(#f)" d="M.296 52.05l23.58 23.582h-.75L.296 52.802z"/></g><g transform="translate(26.06 36.252)"><mask id="h" fill="#fff"><use xlink:href="#g"/></mask><path fill="#B19C63" mask="url(#h)" d="M.296 51.3l24.332 24.332h-.751L.296 52.05z"/></g><g transform="translate(26.06 36.252)"><mask id="j" fill="#fff"><use xlink:href="#i"/></mask><path fill="#B29D63" mask="url(#j)" d="M.296 50.548l25.083 25.084h-.751L.296 51.3z"/></g><g transform="translate(26.06 36.252)"><mask id="l" fill="#fff"><use xlink:href="#k"/></mask><path fill="#B29D64" mask="url(#l)" d="M.296 49.797l25.833 25.835h-.75L.296 50.548z"/></g><g transform="translate(26.06 36.252)"><mask id="n" fill="#fff"><use xlink:href="#m"/></mask><path fill="#B39E64" mask="url(#n)" d="M.296 49.046L26.88 75.632h-.752L.296 49.797z"/></g><g transform="translate(26.06 36.252)"><mask id="p" fill="#fff"><use xlink:href="#o"/></mask><path fill="#B39E64" mask="url(#p)" d="M.296 48.296L27.63 75.632h-.75L.296 49.046z"/></g><g transform="translate(26.06 36.252)"><mask id="r" fill="#fff"><use xlink:href="#q"/></mask><path fill="#B49F65" mask="url(#r)" d="M.296 47.545l28.087 28.087h-.752L.296 48.296z"/></g><g transform="translate(26.06 36.252)"><mask id="t" fill="#fff"><use xlink:href="#s"/></mask><path fill="#B49F65" mask="url(#t)" d="M.296 46.794l28.838 28.838h-.751L.296 47.545z"/></g><g transform="translate(26.06 36.252)"><mask id="v" fill="#fff"><use xlink:href="#u"/></mask><path fill="#B5A065" mask="url(#v)" d="M.296 46.043l29.589 29.589h-.751L.296 46.794z"/></g><g transform="translate(26.06 36.252)"><mask id="x" fill="#fff"><use xlink:href="#w"/></mask><path fill="#B6A066" mask="url(#x)" d="M.296 45.292l30.34 30.34h-.751L.295 46.042z"/></g><g transform="translate(26.06 36.252)"><mask id="z" fill="#fff"><use xlink:href="#y"/></mask><path fill="#B6A166" mask="url(#z)" d="M.296 44.54l31.09 31.092h-.75L.296 45.292z"/></g><g transform="translate(26.06 36.252)"><mask id="B" fill="#fff"><use xlink:href="#A"/></mask><path fill="#B7A166" mask="url(#B)" d="M.296 43.79l31.841 31.842h-.75L.295 44.54z"/></g><g transform="translate(26.06 36.252)"><mask id="D" fill="#fff"><use xlink:href="#C"/></mask><path fill="#B7A266" mask="url(#D)" d="M.296 43.039l32.592 32.593h-.75L.295 43.79z"/></g><g transform="translate(26.06 36.252)"><mask id="F" fill="#fff"><use xlink:href="#E"/></mask><path fill="#B8A267" mask="url(#F)" d="M.296 42.288L33.64 75.632h-.752L.296 43.04z"/></g><g transform="translate(26.06 36.252)"><mask id="H" fill="#fff"><use xlink:href="#G"/></mask><path fill="#B9A367" mask="url(#H)" d="M.296 41.537L34.39 75.632h-.75L.296 42.288z"/></g><g transform="translate(26.06 36.252)"><mask id="J" fill="#fff"><use xlink:href="#I"/></mask><path fill="#B9A367" mask="url(#J)" d="M.296 40.786l34.846 34.846h-.752L.296 41.537z"/></g><g transform="translate(26.06 36.252)"><mask id="L" fill="#fff"><use xlink:href="#K"/></mask><path fill="#BAA468" mask="url(#L)" d="M.296 40.035l35.596 35.597h-.75L.296 40.786z"/></g><g transform="translate(26.06 36.252)"><mask id="N" fill="#fff"><use xlink:href="#M"/></mask><path fill="#BAA468" mask="url(#N)" d="M.296 39.284l36.347 36.348h-.75L.295 40.035z"/></g><g transform="translate(26.06 36.252)"><mask id="P" fill="#fff"><use xlink:href="#O"/></mask><path fill="#BBA568" mask="url(#P)" d="M.296 38.533l37.098 37.099h-.75L.295 39.284z"/></g><g transform="translate(26.06 36.252)"><mask id="R" fill="#fff"><use xlink:href="#Q"/></mask><path fill="#BCA569" mask="url(#R)" d="M.296 37.782l37.85 37.85h-.752L.296 38.533z"/></g><g transform="translate(26.06 36.252)"><mask id="T" fill="#fff"><use xlink:href="#S"/></mask><path fill="#BCA669" mask="url(#T)" d="M.296 37.031l38.6 38.6h-.75L.295 37.783z"/></g><g transform="translate(26.06 36.252)"><mask id="V" fill="#fff"><use xlink:href="#U"/></mask><path fill="#BDA669" mask="url(#V)" d="M.296 36.28l39.351 39.352h-.75L.295 37.031z"/></g><g transform="translate(26.06 36.252)"><mask id="X" fill="#fff"><use xlink:href="#W"/></mask><path fill="#BDA769" mask="url(#X)" d="M.296 35.529l40.102 40.103h-.751L.296 36.28z"/></g><g transform="translate(26.06 36.252)"><mask id="Z" fill="#fff"><use xlink:href="#Y"/></mask><path fill="#BEA76A" mask="url(#Z)" d="M.296 34.778l40.853 40.854h-.751L.296 35.529z"/></g><g transform="translate(26.06 36.252)"><mask id="ab" fill="#fff"><use xlink:href="#aa"/></mask><path fill="#BFA86A" mask="url(#ab)" d="M.296 34.027L41.9 75.632h-.75L.295 34.779z"/></g><g transform="translate(26.06 36.252)"><mask id="ad" fill="#fff"><use xlink:href="#ac"/></mask><path fill="#BFA86A" mask="url(#ad)" d="M.296 33.276L42.65 75.632h-.75L.295 34.027z"/></g><g transform="translate(26.06 36.252)"><mask id="af" fill="#fff"><use xlink:href="#ae"/></mask><path fill="#C0A96B" mask="url(#af)" d="M.296 32.525l43.106 43.107h-.751L.296 33.276z"/></g><g transform="translate(26.06 36.252)"><mask id="ah" fill="#fff"><use xlink:href="#ag"/></mask><path fill="#C0A96B" mask="url(#ah)" d="M.296 31.774l43.857 43.858h-.751L.296 32.525z"/></g><g transform="translate(26.06 36.252)"><mask id="aj" fill="#fff"><use xlink:href="#ai"/></mask><path fill="#C1AA6B" mask="url(#aj)" d="M.296 31.023l44.608 44.609h-.75L.295 31.774z"/></g><g transform="translate(26.06 36.252)"><mask id="al" fill="#fff"><use xlink:href="#ak"/></mask><path fill="#C2AA6C" mask="url(#al)" d="M.296 30.272l45.359 45.36h-.751L.296 31.023z"/></g><g transform="translate(26.06 36.252)"><mask id="an" fill="#fff"><use xlink:href="#am"/></mask><path fill="#C2AB6C" mask="url(#an)" d="M.296 29.521l46.11 46.111h-.751L.295 30.272z"/></g><g transform="translate(26.06 36.252)"><mask id="ap" fill="#fff"><use xlink:href="#ao"/></mask><path fill="#C3AB6C" mask="url(#ap)" d="M.296 28.77l46.861 46.862h-.75L.295 29.522z"/></g><g transform="translate(26.06 36.252)"><mask id="ar" fill="#fff"><use xlink:href="#aq"/></mask><path fill="#C3AC6D" mask="url(#ar)" d="M.296 28.02l47.612 47.612h-.75L.295 28.77z"/></g><g transform="translate(26.06 36.252)"><mask id="at" fill="#fff"><use xlink:href="#as"/></mask><path fill="#C4AC6D" mask="url(#at)" d="M.296 27.268l48.363 48.364h-.751L.296 28.02z"/></g><g transform="translate(26.06 36.252)"><mask id="av" fill="#fff"><use xlink:href="#au"/></mask><path fill="#C5AD6D" mask="url(#av)" d="M.296 26.518L49.41 75.632h-.751L.296 27.27z"/></g><g transform="translate(26.06 36.252)"><mask id="ax" fill="#fff"><use xlink:href="#aw"/></mask><path fill="#C5AD6D" mask="url(#ax)" d="M.296 25.767L50.16 75.632h-.75L.295 26.517z"/></g><g transform="translate(26.06 36.252)"><mask id="az" fill="#fff"><use xlink:href="#ay"/></mask><path fill="#C6AE6E" mask="url(#az)" d="M.296 25.016l50.616 50.616h-.751L.296 25.766z"/></g><g transform="translate(26.06 36.252)"><mask id="aB" fill="#fff"><use xlink:href="#aA"/></mask><path fill="#C6AE6E" mask="url(#aB)" d="M.296 24.265l51.367 51.367h-.751L.296 25.016z"/></g><g transform="translate(26.06 36.252)"><mask id="aD" fill="#fff"><use xlink:href="#aC"/></mask><path fill="#C7AF6E" mask="url(#aD)" d="M.296 23.514l52.118 52.118h-.751L.296 24.265z"/></g><g transform="translate(26.06 36.252)"><mask id="aF" fill="#fff"><use xlink:href="#aE"/></mask><path fill="#C8AF6F" mask="url(#aF)" d="M.296 22.763l52.869 52.869h-.751L.296 23.514z"/></g><g transform="translate(26.06 36.252)"><mask id="aH" fill="#fff"><use xlink:href="#aG"/></mask><path fill="#C8B06F" mask="url(#aH)" d="M.296 22.012l53.62 53.62h-.751L.295 22.762z"/></g><g transform="translate(26.06 36.252)"><mask id="aJ" fill="#fff"><use xlink:href="#aI"/></mask><path fill="#C9B06F" mask="url(#aJ)" d="M.296 21.26l54.37 54.372h-.75L.296 22.012z"/></g><g transform="translate(26.06 36.252)"><mask id="aL" fill="#fff"><use xlink:href="#aK"/></mask><path fill="#C9B16F" mask="url(#aL)" d="M.296 20.51l55.122 55.122h-.752L.296 21.261z"/></g><g transform="translate(26.06 36.252)"><mask id="aN" fill="#fff"><use xlink:href="#aM"/></mask><path fill="#CAB170" mask="url(#aN)" d="M.296 19.759l55.873 55.873h-.751L.296 20.51z"/></g><g transform="translate(26.06 36.252)"><mask id="aP" fill="#fff"><use xlink:href="#aO"/></mask><path fill="#CAB270" mask="url(#aP)" d="M.296 19.008l56.623 56.624h-.75L.296 19.76z"/></g><g transform="translate(26.06 36.252)"><mask id="aR" fill="#fff"><use xlink:href="#aQ"/></mask><path fill="#CBB270" mask="url(#aR)" d="M.296 18.257L57.67 75.632h-.75L.295 19.008z"/></g><g transform="translate(26.06 36.252)"><mask id="aT" fill="#fff"><use xlink:href="#aS"/></mask><path fill="#CBB371" mask="url(#aT)" d="M.296 17.506l58.126 58.126h-.752L.296 18.257z"/></g><g transform="translate(26.06 36.252)"><mask id="aV" fill="#fff"><use xlink:href="#aU"/></mask><path fill="#CBB371" mask="url(#aV)" d="M.296 16.036L59.89 75.632h-1.47L.297 17.506z"/></g><g transform="translate(26.06 36.252)"><mask id="aX" fill="#fff"><use xlink:href="#aW"/></mask><path fill="#CBB270" mask="url(#aX)" d="M.296 14.903l.168-.168 60.73 60.728-.17.17h-1.133L.296 16.035z"/></g><g transform="translate(26.06 36.252)"><mask id="aZ" fill="#fff"><use xlink:href="#aY"/></mask><path fill="#CAB270" mask="url(#aZ)" d="M.464 14.734L1.199 14l60.73 60.73-.736.734z"/></g><g transform="translate(26.06 36.252)"><mask id="bb" fill="#fff"><use xlink:href="#ba"/></mask><path fill="#CAB170" mask="url(#bb)" d="M1.199 14l.735-.736 60.73 60.73-.736.734z"/></g><g transform="translate(26.06 36.252)"><mask id="bd" fill="#fff"><use xlink:href="#bc"/></mask><path fill="#C9B16F" mask="url(#bd)" d="M1.934 13.264l.735-.734L63.4 73.258l-.736.735z"/></g><g transform="translate(26.06 36.252)"><mask id="bf" fill="#fff"><use xlink:href="#be"/></mask><path fill="#C9B06F" mask="url(#bf)" d="M2.67 12.53l.734-.736 60.729 60.73-.735.734z"/></g><g transform="translate(26.06 36.252)"><mask id="bh" fill="#fff"><use xlink:href="#bg"/></mask><path fill="#C8B06F" mask="url(#bh)" d="M3.404 11.794l.735-.735 60.729 60.73-.735.734z"/></g><g transform="translate(26.06 36.252)"><mask id="bj" fill="#fff"><use xlink:href="#bi"/></mask><path fill="#C8AF6F" mask="url(#bj)" d="M4.139 11.06l.735-.736 60.73 60.73-.736.734z"/></g><g transform="translate(26.06 36.252)"><mask id="bl" fill="#fff"><use xlink:href="#bk"/></mask><path fill="#C7AF6E" mask="url(#bl)" d="M4.874 10.324l.735-.735 60.73 60.73-.736.734z"/></g><g transform="translate(26.06 36.252)"><mask id="bn" fill="#fff"><use xlink:href="#bm"/></mask><path fill="#C6AE6E" mask="url(#bn)" d="M5.61 9.59l.734-.735 60.73 60.728-.736.735z"/></g><g transform="translate(26.06 36.252)"><mask id="bp" fill="#fff"><use xlink:href="#bo"/></mask><path fill="#C6AE6E" mask="url(#bp)" d="M6.344 8.854l.735-.735 60.73 60.73-.736.734z"/></g><g transform="translate(26.06 36.252)"><mask id="br" fill="#fff"><use xlink:href="#bq"/></mask><path fill="#C5AD6D" mask="url(#br)" d="M7.08 8.12l.734-.736 60.73 60.73-.736.734z"/></g><g transform="translate(26.06 36.252)"><mask id="bt" fill="#fff"><use xlink:href="#bs"/></mask><path fill="#C5AD6D" mask="url(#bt)" d="M7.814 7.384l.735-.735 60.73 60.73-.736.734z"/></g><g transform="translate(26.06 36.252)"><mask id="bv" fill="#fff"><use xlink:href="#bu"/></mask><path fill="#C4AC6D" mask="url(#bv)" d="M8.55 6.649l.734-.735 60.73 60.729-.736.735z"/></g><g transform="translate(26.06 36.252)"><mask id="bx" fill="#fff"><use xlink:href="#bw"/></mask><path fill="#C3AC6D" mask="url(#bx)" d="M9.284 5.914l.735-.735 60.73 60.729-.736.735z"/></g><g transform="translate(26.06 36.252)"><mask id="bz" fill="#fff"><use xlink:href="#by"/></mask><path fill="#C3AB6C" mask="url(#bz)" d="M10.02 5.18l.735-.736 60.728 60.728-.735.736z"/></g><g transform="translate(26.06 36.252)"><mask id="bB" fill="#fff"><use xlink:href="#bA"/></mask><path fill="#C2AB6C" mask="url(#bB)" d="M10.754 4.444l.735-.735 60.73 60.729-.736.735z"/></g><g transform="translate(26.06 36.252)"><mask id="bD" fill="#fff"><use xlink:href="#bC"/></mask><path fill="#C2AA6C" mask="url(#bD)" d="M11.49 3.709l.734-.735 60.73 60.729-.736.735z"/></g><g transform="translate(26.06 36.252)"><mask id="bF" fill="#fff"><use xlink:href="#bE"/></mask><path fill="#C1AA6B" mask="url(#bF)" d="M12.224 2.974l.736-.735 60.729 60.729-.736.735z"/></g><g transform="translate(26.06 36.252)"><mask id="bH" fill="#fff"><use xlink:href="#bG"/></mask><path fill="#C0A96B" mask="url(#bH)" d="M12.96 2.239l.735-.735 60.729 60.729-.735.735z"/></g><g transform="translate(26.06 36.252)"><mask id="bJ" fill="#fff"><use xlink:href="#bI"/></mask><path fill="#C0A96B" mask="url(#bJ)" d="M13.695 1.504l.735-.735 60.729 60.729-.735.735z"/></g><g transform="translate(26.06 36.252)"><mask id="bL" fill="#fff"><use xlink:href="#bK"/></mask><path fill="#BFA86A" mask="url(#bL)" d="M14.43.769l.52-.521h.429l60.3 60.301v.428l-.52.521z"/></g><g transform="translate(26.06 36.252)"><mask id="bN" fill="#fff"><use xlink:href="#bM"/></mask><path fill="#BFA86A" mask="url(#bN)" d="M16.849.248l58.83 58.83v1.471L15.38.248z"/></g><g transform="translate(26.06 36.252)"><mask id="bP" fill="#fff"><use xlink:href="#bO"/></mask><path fill="#BEA76A" mask="url(#bP)" d="M18.319.248l57.36 57.36v1.47L16.85.249z"/></g><g transform="translate(26.06 36.252)"><mask id="bR" fill="#fff"><use xlink:href="#bQ"/></mask><path fill="#BDA769" mask="url(#bR)" d="M19.789.248l55.89 55.89v1.47L18.32.248z"/></g><g transform="translate(26.06 36.252)"><mask id="bT" fill="#fff"><use xlink:href="#bS"/></mask><path fill="#BDA669" mask="url(#bT)" d="M21.259.248l54.42 54.42v1.47L19.79.249z"/></g><g transform="translate(26.06 36.252)"><mask id="bV" fill="#fff"><use xlink:href="#bU"/></mask><path fill="#BCA669" mask="url(#bV)" d="M22.729.248l52.95 52.95v1.47L21.26.248z"/></g><g transform="translate(26.06 36.252)"><mask id="bX" fill="#fff"><use xlink:href="#bW"/></mask><path fill="#BCA569" mask="url(#bX)" d="M24.199.248l51.48 51.48v1.47L22.73.248z"/></g><g transform="translate(26.06 36.252)"><mask id="bZ" fill="#fff"><use xlink:href="#bY"/></mask><path fill="#BBA568" mask="url(#bZ)" d="M25.669.248l50.01 50.01v1.47L24.2.248z"/></g><g transform="translate(26.06 36.252)"><mask id="cb" fill="#fff"><use xlink:href="#ca"/></mask><path fill="#BAA468" mask="url(#cb)" d="M27.14.248l48.54 48.54v1.47L25.668.249z"/></g><g transform="translate(26.06 36.252)"><mask id="cd" fill="#fff"><use xlink:href="#cc"/></mask><path fill="#BAA468" mask="url(#cd)" d="M28.609.248l47.07 47.07v1.47L27.14.248z"/></g><g transform="translate(26.06 36.252)"><mask id="cf" fill="#fff"><use xlink:href="#ce"/></mask><path fill="#B9A367" mask="url(#cf)" d="M30.08.248l45.6 45.6v1.47L28.608.248z"/></g><g transform="translate(26.06 36.252)"><mask id="ch" fill="#fff"><use xlink:href="#cg"/></mask><path fill="#B9A367" mask="url(#ch)" d="M31.55.248l44.13 44.13v1.47L30.08.248z"/></g><g transform="translate(26.06 36.252)"><mask id="cj" fill="#fff"><use xlink:href="#ci"/></mask><path fill="#B8A267" mask="url(#cj)" d="M33.02.248l42.66 42.66v1.47L31.548.248z"/></g><g transform="translate(26.06 36.252)"><mask id="cl" fill="#fff"><use xlink:href="#ck"/></mask><path fill="#B7A266" mask="url(#cl)" d="M34.49.248l41.19 41.19v1.47L33.02.248z"/></g><g transform="translate(26.06 36.252)"><mask id="cn" fill="#fff"><use xlink:href="#cm"/></mask><path fill="#B7A166" mask="url(#cn)" d="M35.96.248l39.72 39.72v1.47L34.49.248z"/></g><g transform="translate(26.06 36.252)"><mask id="cp" fill="#fff"><use xlink:href="#co"/></mask><path fill="#B6A166" mask="url(#cp)" d="M37.43.248l38.25 38.25v1.47L35.96.248z"/></g><g transform="translate(26.06 36.252)"><mask id="cr" fill="#fff"><use xlink:href="#cq"/></mask><path fill="#B6A066" mask="url(#cr)" d="M38.9.248l36.78 36.78v1.47L37.43.248z"/></g><g transform="translate(26.06 36.252)"><mask id="ct" fill="#fff"><use xlink:href="#cs"/></mask><path fill="#B5A065" mask="url(#ct)" d="M40.37.248l35.31 35.31v1.47L38.9.248z"/></g><g transform="translate(26.06 36.252)"><mask id="cv" fill="#fff"><use xlink:href="#cu"/></mask><path fill="#B49F65" mask="url(#cv)" d="M41.84.248l33.84 33.84v1.47L40.37.248z"/></g><g transform="translate(26.06 36.252)"><mask id="cx" fill="#fff"><use xlink:href="#cw"/></mask><path fill="#B49F65" mask="url(#cx)" d="M43.31.248l32.37 32.37v1.47L41.84.248z"/></g><g transform="translate(26.06 36.252)"><mask id="cz" fill="#fff"><use xlink:href="#cy"/></mask><path fill="#B39E64" mask="url(#cz)" d="M44.78.248l30.9 30.9v1.47L43.31.248z"/></g><g transform="translate(26.06 36.252)"><mask id="cB" fill="#fff"><use xlink:href="#cA"/></mask><path fill="#B39E64" mask="url(#cB)" d="M46.25.248l29.43 29.43v1.47L44.78.248z"/></g><g transform="translate(26.06 36.252)"><mask id="cD" fill="#fff"><use xlink:href="#cC"/></mask><path fill="#B29D64" mask="url(#cD)" d="M47.72.248l27.96 27.96v1.47L46.25.248z"/></g><g transform="translate(26.06 36.252)"><mask id="cF" fill="#fff"><use xlink:href="#cE"/></mask><path fill="#B29D63" mask="url(#cF)" d="M49.19.248l26.49 26.49v1.47L47.72.248z"/></g><g transform="translate(26.06 36.252)"><mask id="cH" fill="#fff"><use xlink:href="#cG"/></mask><path fill="#B19C63" mask="url(#cH)" d="M50.66.248l25.02 25.02v1.47L49.19.248z"/></g><g transform="translate(26.06 36.252)"><mask id="cJ" fill="#fff"><use xlink:href="#cI"/></mask><path fill="#B09C63" mask="url(#cJ)" d="M52.13.248l23.55 23.55v1.47L50.66.247z"/></g><g transform="translate(26.06 36.252)"><mask id="cL" fill="#fff"><use xlink:href="#cK"/></mask><path fill="#B09B62" mask="url(#cL)" d="M53.6.248l22.08 22.08v1.47L52.13.248z"/></g><g transform="translate(26.06 36.252)"><mask id="cN" fill="#fff"><use xlink:href="#cM"/></mask><path fill="#B09B62" mask="url(#cN)" d="M75.68 22.327L53.6.247h22.08z"/></g><g><g transform="translate(52.727 .494)"><mask id="cP" fill="#fff"><use xlink:href="#cO"/></mask><path fill="#CBB26C" mask="url(#cP)" d="M11.32 15.413l-6.675 5.245 2.926-7.97L.519 7.96l8.484.32L11.32.111l2.317 8.167 8.484-.32-7.05 4.73 2.925 7.97z"/></g><path fill="#CBB26C" d="M88.503 21.495l-4.457 3.502L86 19.677l-4.707-3.157 5.663.212 1.548-5.452 1.548 5.452 5.664-.212-4.708 3.157 1.953 5.32zM40.602 21.495l-4.457 3.502 1.952-5.32-4.707-3.157 5.664.212 1.548-5.452 1.547 5.452 5.664-.212-4.707 3.157 1.952 5.32zM103.108 34.433l-3.198 2.513 1.4-3.818-3.377-2.266 4.064.153 1.111-3.913 1.11 3.913 4.065-.153-3.378 2.266 1.401 3.818zM22.653 34.433l-3.198 2.513 1.401-3.818-3.378-2.266 4.065.153 1.11-3.913 1.11 3.913 4.066-.153-3.379 2.266 1.402 3.818z"/><path d="M54.07 71.52l.714-.714V61.85l-.715-.667H48.59v10.338h5.48zM42.54 91.483V55.276h15.388l2.953 2.954v16.197l-2.953 2.953H48.59v14.102h-6.05zM78.03 77.81l-2.524-12.196L72.98 77.81h5.05zm1.192 5.86H71.79l-1.62 7.812h-6.193l8.575-36.206h5.907l8.575 36.206h-6.192l-1.62-7.813z" fill="#FEFEFE"/><path d="M64.048 37.73c-20.104 0-36.46 16.357-36.46 36.462 0 20.104 16.356 36.46 36.46 36.46s36.461-16.356 36.461-36.46c0-20.105-16.357-36.461-36.461-36.461m0 74.491c-20.97 0-38.03-17.06-38.03-38.03 0-20.971 17.06-38.031 38.03-38.031 20.97 0 38.03 17.06 38.03 38.03 0 20.97-17.06 38.031-38.03 38.031" fill="#2D2D2C"/></g></g></svg>